<?xml version="1.0" standalone="no"?><!DOCTYPE svg PUBLIC "-//W3C//DTD SVG 1.1//EN" "http://www.w3.org/Graphics/SVG/1.1/DTD/svg11.dtd"><svg t="1561705830715" class="icon" viewBox="0 0 1024 1024" version="1.1" xmlns="http://www.w3.org/2000/svg" p-id="32869" xmlns:xlink="http://www.w3.org/1999/xlink" width="200" height="200"><defs><style type="text/css"></style></defs><path d="M758.7 733.8s-19.8 3.2-26.1-44.4S707 586.9 707 586.9l-8 19.3 6.3 164.5s8.9 22-35.4 22.8c-44.2 0.8-201.4 0.1-201.4 0.1l-127.4-0.8s-32.6 0.7-32.6-34.1 8.2-193.2 8.2-193.2l-39.9 137.6s2.5 31.1-33 30.3-65.7-17.4-65.7-17.4-30.7-12.7-21.8-48.3l84.8-338.8s5.3-54 42.7-79.9 0.8-47.5 80.9-68.8c0 0 32.1 12.8 46.5 19.2 14.4 6.4 63.1 25 95.7 22s75-14.6 87-21.2c12.1-6.6 39.3-40.5 93.4 0 0 0 22.1 21 26.3 31.1 4.2 10.1 33.2 34.5 33.2 34.5s36.6 92.9 57.2 192.9 45.5 181.5 45.5 181.5l5.9 23.5s4.2 45.7-20.8 52.3l14.4 3.9 3.9 14.4s9.6 21.3-17.6 28.8c-27.2 7.4-37.5 10.3-37.5 10.3s-19.5 9.3-24.1-7.6c-4.4-17.1-15-32-15-32z m-520.9 33l7-18.7c2.7-7.1-1-15-8-17.7l-50.9-14.7c-7.1-2.7-15 1-17.7 8l-7 18.7c-2.7 7.1 1 15 8 17.7l50.9 14.7c7.1 2.7 15.1-0.9 17.7-8z" fill="#2c2c2c" p-id="32870"></path><path d="M766.8 302.4c-91 176.8-585.9 275.8-585.9 275.8l-3.6 14.2c36.6 20.7 77.5 33.1 120.5 39.2l13.4-29 3.5 31.1C543 657.4 820.5 516.5 820.5 516.5l-41.8-166.3-11.9-47.8z" fill="#2c2c2c" p-id="32871"></path><path d="M635.6 677.5c-34.8 0-63-28.2-63-63v-0.1c0-4.4-3.4-8-7.8-8H453.1c-4.4 0-7.8 3.6-7.8 8v0.1c0 34.8-28.2 63-63 63h-0.1c-2.9 0-5.3 2.3-5.3 5.2v62.4c0 7.6 6.2 13.7 13.7 13.7h236.7c7.6 0 13.7-6.2 13.7-13.7v-62.3c0.1-2.9-2.4-5.3-5.4-5.3z" fill="#2c2c2c" p-id="32872"></path><path d="M684.4 800.7h-351c-16.4 0-29.7-13.3-29.7-29.7v-46.8-0.2-0.2l16.5-319.3c0.2-3.8 3.4-6.7 7.2-6.5 3.8 0.2 6.7 3.4 6.5 7.2l-16.5 319.1V771c0 8.8 7.2 16 16 16h351c8.8 0 16-7.2 16-16v-45.1c-0.1-0.5-0.2-1-0.2-1.5l-16.5-319.3c-0.2-3.8 2.7-7 6.5-7.2 3.8-0.2 7 2.7 7.2 6.5l16.4 317.5c0.2 0.7 0.3 1.4 0.3 2.2V771c0.1 16.4-13.3 29.7-29.7 29.7z m82.2-491.4c-3.5 0-6.5-2.7-6.8-6.3-0.1-1.2-0.2-2.2-0.5-3.1-4.3-19.3-17.7-36.1-39.8-49.9-19.3-12-40.7-18.8-51.7-21.7-3.7-1-5.8-4.7-4.9-8.4 1-3.7 4.7-5.8 8.4-4.9 26.5 7.1 89.6 29.3 101.4 81.9 0.3 1.5 0.6 3.2 0.7 5 0.3 3.8-2.5 7.1-6.3 7.4-0.1-0.1-0.3 0-0.5 0z m-515.1-2.2c-0.4 0-0.9 0-1.3-0.1-3.7-0.7-6.1-4.3-5.4-8.1 10.6-54.1 74.7-76.7 101.8-84 3.7-1 7.4 1.2 8.4 4.9s-1.2 7.4-4.9 8.4c-11.2 3-33 9.9-52.5 22.2-22.3 14.1-35.6 31.3-39.4 51.2-0.6 3.3-3.5 5.5-6.7 5.5z" p-id="32873" fill="#2c2c2c"></path><path d="M764.8 741.3c-5.5 0-10.9-1.5-15.8-4.3-7.2-4.3-12.4-11.1-14.4-19.3L691 543.6c-0.9-3.7 1.3-7.4 5-8.3 3.7-0.9 7.4 1.3 8.3 5l43.6 174.1c1.1 4.6 4 8.4 8.1 10.8 4 2.4 8.8 3 13.3 1.8l65.7-17.4c13.9-3.7 22.4-18.1 18.9-32.1L759.4 300c-0.9-3.7 1.3-7.4 5-8.3 3.7-0.9 7.4 1.3 8.3 5l94.5 377.5c5.3 21.2-7.6 43-28.7 48.7l-65.7 17.4c-2.6 0.7-5.3 1-8 1zM252.2 741.3c-2.7 0-5.4-0.4-8.1-1.1l-65.7-17.4c-21.1-5.6-34-27.4-28.7-48.7l94.5-377.5c0.9-3.7 4.6-5.9 8.3-5 3.7 0.9 5.9 4.6 5 8.3L163 677.4c-3.5 14 5 28.4 18.9 32.1l65.7 17.4c4.5 1.2 9.3 0.6 13.3-1.8 4.1-2.4 6.9-6.2 8.1-10.8l43.6-174.1c0.9-3.7 4.6-5.9 8.3-5 3.7 0.9 5.9 4.6 5 8.3l-43.6 174.1c-2 8.2-7.2 15-14.4 19.3-4.8 3-10.2 4.4-15.7 4.4z" p-id="32874" fill="#2c2c2c"></path><path d="M789.1 782.9c-3.5 0-7-0.9-10.2-2.7-4.8-2.7-8.2-7.1-9.7-12.4l-8.6-31.4c-1-3.7 1.1-7.4 4.8-8.4 3.7-1 7.4 1.1 8.4 4.8l8.6 31.4c1 3.7 4.8 5.8 8.4 4.8l55.2-15.1c1.8-0.5 3.2-1.6 4.1-3.2 0.9-1.6 1.2-3.5 0.7-5.2l-10.3-37.7 6.1-2.1c3.8-1.3 7.2-15.7 6.9-29.6-0.1-3.8 3-6.9 6.7-7h0.1c3.7 0 6.8 3 6.9 6.7 0 0.4 0.1 8.8-1.3 17.8-1.6 10.2-4.7 17.4-9.2 21.6l7.3 26.6c1.5 5.3 0.7 10.8-2 15.6-2.7 4.8-7.1 8.2-12.4 9.7l-55.2 15.1c-1.6 0.4-3.5 0.7-5.3 0.7zM230.1 782.9c-1.8 0-3.6-0.2-5.4-0.7L169.5 767c-5.3-1.5-9.7-4.9-12.4-9.7-2.7-4.8-3.4-10.3-2-15.6l8.6-31.4c1-3.7 4.8-5.8 8.4-4.8 3.7 1 5.8 4.8 4.8 8.4l-8.6 31.4c-0.5 1.8-0.2 3.6 0.7 5.2 0.9 1.6 2.4 2.7 4.1 3.2l55.2 15.1c3.7 1 7.4-1.2 8.4-4.8l8.6-31.4c1-3.7 4.8-5.8 8.4-4.8 3.7 1 5.8 4.8 4.8 8.4l-8.6 31.4c-2.5 9.2-10.8 15.3-19.8 15.3zM627.4 765.8H390.7c-11.4 0-20.6-9.2-20.6-20.6v-62.4c0-3.2 1.3-6.2 3.5-8.5 2.3-2.3 5.4-3.6 8.6-3.6 31 0 56.2-25.2 56.2-56.1 0-4.1 1.5-7.8 4.3-10.6s6.4-4.3 10.3-4.3h111.7c3.9 0 7.6 1.5 10.3 4.3 2.8 2.8 4.3 6.5 4.3 10.5 0 31 25.2 56.2 56.1 56.2h0.1c3.3 0 6.4 1.3 8.7 3.6 2.3 2.3 3.6 5.4 3.6 8.6v62.3c0.2 11.3-9.1 20.6-20.4 20.6z m-243.6-81.4v60.8c0 3.8 3.1 6.9 6.9 6.9h236.7c3.8 0 6.9-3.1 6.9-6.9v-60.8c-37.9-0.7-68.5-31.8-68.5-69.8 0-0.5-0.2-0.8-0.3-0.9-0.3-0.3-0.5-0.3-0.6-0.3H453.1c-0.1 0-0.4 0-0.6 0.3-0.1 0.1-0.3 0.4-0.3 0.8 0 38.1-30.5 69.1-68.4 69.9z m-1.5 0zM509.6 281.8c-3.9 0-7.3-2.7-8-6.7-0.7-4 1.6-7.9 5.5-9.2 56.2-18.3 80.2-47.2 90.4-68.2 8.5-17.5 27.8-27.2 46.9-23.7 67 12.5 81.6 63.6 82.2 65.7l4.6 17.1-14.9-9.5c-12.9-8.2-37.6-15.9-44.8-18-0.3-0.1-0.6 0-0.9 0.2-57.8 44.4-137.5 51.2-160.6 52.3h-0.4z m127-94.8c-11.2 0-21.7 6.4-26.7 16.7-8.8 18.1-26.6 41.5-62.5 60.3 33.1-5.4 78.7-17.6 114.9-45.4 3.8-2.9 8.7-3.8 13.2-2.5 6.2 1.8 18.2 5.6 29.7 10.4-9.2-13.9-27.8-32.4-63.2-39-1.8-0.3-3.6-0.5-5.4-0.5z" p-id="32875" fill="#2c2c2c"></path><path d="M504.7 281.8h-0.4c-27.7-1.3-98.1-8.7-154.3-51.1-1.2-0.9-2.9-1.2-4.4-0.8-8.9 2.7-30.9 9.8-42.9 17.5l-11.8 7.5 1.3-14c0.1-0.6 1.4-14.4 11.3-29.5 9-13.8 27.1-31.6 62.1-37.8 18.2-3.2 36.4 5.5 45.3 21.7 12 21.8 38.4 51.8 96.3 70.6 3.9 1.3 6.2 5.1 5.5 9.2-0.7 3.9-4.1 6.7-8 6.7z m0.2-13.7zM347 216c4 0 8 1.3 11.2 3.7 34.8 26.2 76.4 38.3 107.4 43.8-37-19.2-56.5-43.1-66.7-61.6-6.1-11-18.5-17-30.9-14.8-36.9 6.5-52 27-58.1 41 11.2-4.9 23.7-9 31.7-11.5 1.8-0.4 3.6-0.6 5.4-0.6zM592.8 452.8c-3.5 0-6.5-2.7-6.8-6.3-5.6-68.3-15.9-110.4-23.5-133.7-8.3-25.2-15.3-34.4-15.3-34.5-2.4-3-1.9-7.3 1-9.6 3-2.4 7.3-1.9 9.7 1.1 1.2 1.5 30.6 39.3 41.8 175.6 0.3 3.8-2.5 7.1-6.3 7.4h-0.6zM627.4 765.8H390.7c-11.4 0-20.6-9.2-20.6-20.6v-62.4c0-3.2 1.3-6.2 3.5-8.5 2.3-2.3 5.4-3.6 8.6-3.6 31 0 56.2-25.2 56.2-56.1 0-4.1 1.5-7.8 4.3-10.6s6.4-4.3 10.3-4.3h111.7c3.9 0 7.6 1.5 10.3 4.3 2.8 2.8 4.3 6.5 4.3 10.5 0 31 25.2 56.2 56.1 56.2h0.1c3.3 0 6.4 1.3 8.7 3.6 2.3 2.3 3.6 5.4 3.6 8.6v62.3c0.2 11.3-9.1 20.6-20.4 20.6z m-243.6-81.4v60.8c0 3.8 3.1 6.9 6.9 6.9h236.7c3.8 0 6.9-3.1 6.9-6.9v-60.8c-37.9-0.7-68.5-31.8-68.5-69.8 0-0.5-0.2-0.8-0.3-0.9-0.3-0.3-0.5-0.3-0.6-0.3H453.1c-0.1 0-0.4 0-0.6 0.3-0.1 0.1-0.3 0.4-0.3 0.8 0 38.1-30.5 69.1-68.4 69.9z m-1.5 0z" p-id="32876" fill="#2c2c2c"></path><path d="M509.6 281.8c-3.9 0-7.3-2.7-8-6.7-0.7-4 1.6-7.9 5.5-9.2 56.2-18.3 80.2-47.2 90.4-68.2 8.5-17.5 27.8-27.2 46.9-23.7 67 12.5 81.6 63.6 82.2 65.7l4.6 17.1-14.9-9.5c-12.9-8.2-37.6-15.9-44.8-18-0.3-0.1-0.6 0-0.9 0.2-57.8 44.4-137.5 51.2-160.6 52.3h-0.4z m127-94.8c-11.2 0-21.7 6.4-26.7 16.7-8.8 18.1-26.6 41.5-62.5 60.3 33.1-5.4 78.7-17.6 114.9-45.4 3.8-2.9 8.7-3.8 13.2-2.5 6.2 1.8 18.2 5.6 29.7 10.4-9.2-13.9-27.8-32.4-63.2-39-1.8-0.3-3.6-0.5-5.4-0.5z" p-id="32877" fill="#2c2c2c"></path><path d="M504.7 281.8h-0.4c-27.7-1.3-98.1-8.7-154.3-51.1-1.2-0.9-2.9-1.2-4.4-0.8-8.9 2.7-30.9 9.8-42.9 17.5l-11.8 7.5 1.3-14c0.1-0.6 1.4-14.4 11.3-29.5 9-13.8 27.1-31.6 62.1-37.8 18.2-3.2 36.4 5.5 45.3 21.7 12 21.8 38.4 51.8 96.3 70.6 3.9 1.3 6.2 5.1 5.5 9.2-0.7 3.9-4.1 6.7-8 6.7z m0.2-13.7zM347 216c4 0 8 1.3 11.2 3.7 34.8 26.2 76.4 38.3 107.4 43.8-37-19.2-56.5-43.1-66.7-61.6-6.1-11-18.5-17-30.9-14.8-36.9 6.5-52 27-58.1 41 11.2-4.9 23.7-9 31.7-11.5 1.8-0.4 3.6-0.6 5.4-0.6z" p-id="32878" fill="#2c2c2c"></path><path d="M592.8 452.8c-3.5 0-6.5-2.7-6.8-6.3-5.6-68.3-15.9-110.4-23.5-133.7-8.3-25.2-15.3-34.4-15.3-34.5-2.4-3-1.9-7.3 1-9.6 3-2.4 7.3-1.9 9.7 1.1 1.2 1.5 30.6 39.3 41.8 175.6 0.3 3.8-2.5 7.1-6.3 7.4h-0.6zM430 562.4h-0.6c-3.8-0.3-6.6-3.7-6.2-7.4 1.2-13.5 0.5-33.2-0.4-55.9-2.3-63.7-5.6-150.9 25.3-227.8 1.4-3.5 5.4-5.2 8.9-3.8 3.5 1.4 5.2 5.4 3.8 8.9-29.8 74.2-26.6 159.7-24.3 222.2 0.9 23.2 1.6 43.3 0.3 57.6-0.2 3.5-3.2 6.2-6.8 6.2z" fill="#2c2c2c" p-id="32879"></path><path d="M507.4 228.4c-16.2 0-30.8-1.9-43.2-4.4-38.9-8-64.2-23.7-65.3-24.4-3.2-2-4.2-6.3-2.2-9.5s6.3-4.2 9.5-2.2c0.5 0.3 24.8 15.3 61.3 22.7 48.7 9.9 94.9 2.2 137.2-22.8 3.3-1.9 7.5-0.8 9.4 2.4 1.9 3.3 0.8 7.5-2.4 9.4-37.2 22-73.6 28.8-104.3 28.8z" p-id="32880" fill="#2c2c2c"></path></svg>