<?xml version="1.0" standalone="no"?><!DOCTYPE svg PUBLIC "-//W3C//DTD SVG 1.1//EN" "http://www.w3.org/Graphics/SVG/1.1/DTD/svg11.dtd"><svg t="1561705124333" class="icon" viewBox="0 0 1024 1024" version="1.1" xmlns="http://www.w3.org/2000/svg" p-id="6517" xmlns:xlink="http://www.w3.org/1999/xlink" width="200" height="200"><defs><style type="text/css"></style></defs><path d="M475.9 760.9c-1.8 0-10.1 0.1-22.8 0.8 7.6-0.4 15.2-0.7 22.8-0.8zM382.6 769.1c-30 4.9-62.9 12.6-91.5 24.9 29.1-11.5 60-19.6 91.5-24.9z" fill="#2c2c2c" p-id="6518"></path><path d="M719.7 740.8c16 11.5 61.3-26.2 62.6-31.9 2.2-9.4 5.2-4.2 7.9 4.7-12.6-63.9-17.7-130.9-17.9-193.7-3.8-0.6-13.9-2.1-29.3-4-13.4 19.6-73.4 33.2-73.4 33.2v133.3l-25.3 34.2H417.2l-51.1-34.2 5.3-133.3c-40.4-10.7-85.7-20.1-104.3-30.9-5 0.6-9.9 1.3-14.9 1.9 0 0-0.6-13.9-2-35.6 0.3 11.9 0.3 23.6 0.2 35.1-0.4 28.3-2 55.3-4.4 80.4 0 0 19-6.4 45.2-30.4 26.2-24-16.5 35-46.9 46.5v-0.1c-6.4 55.1-16.8 99.9-27.1 127.5 40-14.3 13.3-45.8 13.3-45.8 49.2 52.8-13.3 45.8-13.3 45.8-13.4 36-0.7 50.7 16.1 56.3 0 0 108.3-74.3 199.6-56.3 73.8 14.5 56.6 16.9 47.4 17.2 112.3-1.3 218.7 23 269.8 40.8 83.3 28.9 46.6-58 46.6-58-83.9 23.9-77-2.7-77-2.7z m3.7-150.7c3.4-0.3 7.3 0.6 11.3 2.4 14.9 1.9 36 5.9 37.9 16.4l3.5 18.8s-22.5-26.8-41.4-35.2c-12-1.5-20.1-1.6-11.3-2.4z" fill="#2c2c2c" p-id="6519"></path><path d="M273.5 801.6c1.9-0.9 3.8-1.7 5.7-2.5-4.4 1.5-9.7 2.9-15.5 3.8 5.9-0.6 9.8-1.3 9.8-1.3zM230.1 309.2c2.6 14-3.7-17.1-3.7-17.1-1-4.2-2-8.3-3.1-12.2 0 0-36.4-86.9 35.1-64.7-73.9-24.3-36.9 64.1-36.9 64.1 5.6 20.7 10.3 41.4 14.1 62.1-1.6-11.1-3.5-22-5.5-32.2zM739.5 221.6s21.8-13.1 40.9-14.3h0.2c3.8-0.2 7.5 0 10.9 1-20.3-7.4-53.7 12.8-53.7 12.8-74.2 73.3-443.6 3.9-463.4 0.2 0.3 0.1 0.6 0.3 0.9 0.4 0-0.1 388 75.2 464.2-0.1z" fill="#2c2c2c" p-id="6520"></path><path d="M267.1 518.2c-9.8-5.7-12.3-11.8-2.9-18.7 55.7-41.2 117.3-27 117.3-27V260.8c34.6 4.3 49.9 37.3 49.9 37.3 90.9-41.6 181.5 0 181.5 0 24.8-47 48.3-33.5 48.3-33.5l0.4 189.7s82.7 29.4 84.1 53.3c0.2 2.9-0.8 5.6-2.6 8.3 15.4 1.9 25.5 3.4 29.3 4l1.8 0.3c-0.1-39.1 1.6-76.5 4.7-110.5-0.6 1.2-1.1 1.7-1.6 1.2-5.6-5.2-47.5-78.9-27-98.1 20.4-19.1 30.3-104.9 30.3-105.5-19.1 1.2-40.9 14.3-40.9 14.3-76.3 75.3-464.2 0-464.2 0-0.3-0.1-0.6-0.3-0.9-0.4-5.8-2.6-11.1-4.5-15.9-6-71.5-22.3-35.1 64.7-35.1 64.7 1.1 3.9 2.1 8 3.1 12.2 0 0 38.7-24.5 47.1-18.8 0 0-46 21.9-43.4 35.9 2 10.3 3.9 21.1 5.6 32.2 1.4 9 2.7 18.2 3.8 27.4v-5.1s22.1-34.4 73.1-43.9c0 0-60 34.7-72.4 54.6 1.5 12.3 2.9 24.6 4 36.5 0 0 46.5 5.5 46.9 19.1 0.3 13.6-12.7-12.8-41.1 5.4l-5.7-24.5c2.8 27.9 4.7 54 5.9 73.7 1.4 21.7 2 35.6 2 35.6 4.6-0.7 9.6-1.3 14.6-2z m504.1-53.4l1.4 23.9s-34.6-47.9-47-47.9c-12.3 0.1 9.5-17.5 45.6 24zM780.6 207.3c39.3-0.5 25.9 48.7 20.1 72.5 14.9-49.5 5.9-67.4-9.2-71.6-3.4-0.9-7.1-1.1-10.9-0.9z" fill="#2c2c2c" p-id="6521"></path><path d="M230.1 309.2c-2.6-14.1 43.4-35.9 43.4-35.9-8.4-5.7-47.1 18.8-47.1 18.8s6.3 31.1 3.7 17.1zM312.6 319.8c-51 9.5-73.1 43.9-73.1 43.9V375.6c0.2-0.4 0.4-0.8 0.7-1.2 12.4-19.9 72.4-54.6 72.4-54.6zM291.1 430c-0.3-13.6-46.8-19.1-46.9-19.1l5.7 24.5c28.5-18.2 41.6 8.2 41.2-5.4zM725.6 440.9c12.3 0 47 47.9 47 47.9l-1.4-23.9c-36.1-41.6-57.9-24-45.6-24zM780.6 207.3h-0.2c-0.1 0.6-10 86.4-30.3 105.5-20.5 19.2 21.4 92.8 27 98.1 0.5 0.5 1.1 0 1.6-1.2 6-12.6 16-105.6 22-129.8 5.8-23.9 19.2-73.1-20.1-72.6z" fill="#2c2c2c" p-id="6522"></path><path d="M291.1 569.6C264.9 593.6 246 600 246 600l-1.7 16.1v0.1c30.3-11.5 73-70.6 46.8-46.6zM230.5 697.8s26.7 31.5-13.3 45.8c0 0 62.5 7 13.3-45.8zM432.8 743.6c-91.3-18-199.6 56.3-199.6 56.3 10.3 4 21 4.2 30.4 2.9 5.9-0.8 11.2-2.3 15.5-3.8 7.3-2.5 11.9-5 11.9-5 28.6-12.3 61.5-20.1 91.5-24.9 27.8-4.5 53.2-6.6 70.5-7.5 12.7-0.7 21-0.7 22.8-0.8h0.4s1.8 0 4-0.1c9.3-0.2 26.4-2.6-47.4-17.1zM776.1 627.6l-3.5-18.8c-2-10.5-23-14.5-37.9-16.4 18.9 8.4 41.4 35.2 41.4 35.2zM734.7 592.4c-4-1.8-7.8-2.7-11.3-2.4-8.8 0.9-0.7 1 11.3 2.4zM782.3 708.9c-1.3 5.6-46.7 43.3-62.6 31.9 0 0-6.9 26.6 77 2.8 0 0-3-18.3-6.5-30-2.7-8.9-5.7-14.1-7.9-4.7z" fill="#2c2c2c" p-id="6523"></path><path d="M745.6 507.6c-1.4-23.9-84.1-53.3-84.1-53.3l-0.4-189.7s-23.5-13.5-48.3 33.5c0 0-90.6-41.6-181.5 0 0 0-15.2-33.1-49.9-37.3v211.7s-61.6-14.2-117.3 27c-9.3 6.9-6.9 13 2.9 18.7 18.7 10.8 63.9 20.2 104.3 30.9L366 682.4l51.1 34.2-24.1-18.9 2.7-223.4 128.1 63.5 130.7-63.5v223.4l-10.3 18.9 25.3-34.2V549.1s60-13.6 73.4-33.2c1.9-2.6 2.8-5.4 2.7-8.3zM501.9 397.7H446l-13.2-9.1v-13.1l69.1 14.4v7.8z m108.9-9.1l-13.2 9.1h-55.9V390l69.1-14.4v13z" fill="#2c2c2c" p-id="6524"></path><path d="M432.8 388.6l13.2 9.1h55.9V390l-69.1-14.4zM541.7 397.7h55.9l13.2-9.1v-13L541.7 390zM654.6 474.3l-130.8 63.5-128-63.5-2.7 223.5 24.1 18.9h227.1l10.3-18.9z" fill="#2c2c2c" p-id="6525"></path></svg>